<?xml version="1.0" encoding="utf-8"?>
<!-- Generator: Adobe Illustrator 27.4.0, SVG Export Plug-In . SVG Version: 6.00 Build 0)  -->
<svg version="1.1" xmlns="http://www.w3.org/2000/svg" xmlns:xlink="http://www.w3.org/1999/xlink" x="0px" y="0px"
	 viewBox="0 0 500 500" style="enable-background:new 0 0 500 500;" xml:space="preserve">
<style type="text/css">
	.st0{fill:#FBF8EE;}
	.st1{fill:none;stroke:#414143;stroke-width:2;stroke-linecap:round;stroke-miterlimit:10;}
	.st2{fill:#49DAC2;}
	.st3{fill:#414143;}
	.st4{fill:#FCB041;}
	.st5{opacity:0.5;fill:#49DAC2;}
	.st6{display:none;fill:#414143;}
	.st7{font-family:'Poppins-Bold';}
	.st8{font-size:88.1584px;}
	.st9{display:none;}
	.st10{display:inline;fill:#FCB041;}
</style>
<g id="BACKGROUND">
	<rect x="-344.18" y="585.32" class="st0" width="1187.22" height="905.21"/>
</g>
<g id="OBJECTS">
	<g>
		<path class="st1" d="M211.3,13.97c77.43,0,90.33,126.7,90.33,126.7"/>
		<path class="st2" d="M87.32,100.78v105.31c8.69-1.7,17.66-2.62,26.85-2.62c76.76,0,138.99,62.23,138.99,138.99
			c0,40.72-24.77,80.36-53.38,112.61H396.6c23.8,0,43.09-19.3,43.09-43.09v-311.2H87.32z"/>
		<path class="st3" d="M362.66,100.78v311.2c0,23.8,19.29,43.09,43.09,43.09h37.56c23.8,0,43.09-19.3,43.09-43.09v-311.2H362.66z"/>
		<path class="st0" d="M130.94,141.26c0,6.15-4.99,11.14-11.15,11.14c-6.15,0-11.14-4.99-11.14-11.14c0-6.16,4.99-11.15,11.14-11.15
			C125.95,130.11,130.94,135.1,130.94,141.26z"/>
		<path class="st0" d="M271.72,141.26c0,6.15-4.99,11.14-11.15,11.14c-6.15,0-11.14-4.99-11.14-11.14c0-6.16,4.99-11.15,11.14-11.15
			C266.73,130.11,271.72,135.1,271.72,141.26z"/>
		<path class="st0" d="M454.15,141.26c0,6.15-4.99,11.14-11.15,11.14c-6.15,0-11.14-4.99-11.14-11.14c0-6.16,4.99-11.15,11.14-11.15
			C449.16,130.11,454.15,135.1,454.15,141.26z"/>
		<path class="st1" d="M260.57,140.67c0,0,13.49-126.7,90.92-126.7c77.43,0,90.33,126.7,90.33,126.7"/>
		<path class="st1" d="M120.38,140.67c0,0,13.49-126.7,90.92-126.7"/>
		<path class="st4" d="M112.33,232.89c-58.87,0-106.59,47.72-106.59,106.6c0,75.23,106.59,143.46,106.59,143.46
			s106.6-69.46,106.6-143.46C218.93,280.61,171.2,232.89,112.33,232.89z M112.34,397.96c-38.36,0-69.46-31.09-69.46-69.46
			c0-38.37,31.1-69.46,69.46-69.46c38.36,0,69.46,31.1,69.46,69.46C181.8,366.87,150.7,397.96,112.34,397.96z"/>
		<path class="st4" d="M59.58,439.96c26.46,26.15,52.75,43,52.75,43s106.6-69.46,106.6-143.46c0-6.62-0.64-13.08-1.78-19.36
			C222.05,382.84,141.13,460.41,59.58,439.96z"/>
		<path class="st5" d="M308.52,455.08c-14.14-85.71-44.18-167.85-100.22-214.86c27.57,25.4,44.87,61.8,44.87,102.25
			c0,40.72-24.77,80.36-53.38,112.61H308.52z"/>
		<path class="st4" d="M112.34,379.17c-27.98,0-50.66-22.68-50.66-50.67c0-27.98,22.68-50.67,50.66-50.67
			c27.98,0,50.67,22.68,50.67,50.67C163,356.49,140.32,379.17,112.34,379.17z"/>
	</g>
</g>
<g id="TEXTS">
	<g>
		<g>
			<text transform="matrix(1 0 0 1 319.9072 213.6787)" class="st6 st7 st8">Gift</text>
			<g class="st9">
				<text transform="matrix(1 0 0 1 258.7246 295.9912)" class="st10 st7 st8">Shop</text>
			</g>
		</g>
	</g>
</g>
</svg>
