<?xml version="1.0" encoding="utf-8"?>
<!-- Generator: Adobe Illustrator 27.4.0, SVG Export Plug-In . SVG Version: 6.00 Build 0)  -->
<svg version="1.1" xmlns="http://www.w3.org/2000/svg" xmlns:xlink="http://www.w3.org/1999/xlink" x="0px" y="0px"
	 viewBox="0 0 500 500" style="enable-background:new 0 0 500 500;" xml:space="preserve">
<style type="text/css">
	.st0{fill:#FBF8EE;}
	.st1{fill:none;stroke:#414143;stroke-width:2;stroke-linecap:round;stroke-miterlimit:10;}
	.st2{fill:#49DAC2;}
	.st3{fill:#414143;}
	.st4{fill:#FCB041;}
	.st5{opacity:0.5;fill:#49DAC2;}
	.st6{font-family:'Poppins-Bold';}
	.st7{font-size:45.9196px;}
</style>
<g id="BACKGROUND">
	<rect class="st0" width="500" height="500"/>
</g>
<g id="OBJECTS">
	<g>
		<path class="st1" d="M169.2,207.82c17.03,0,19.87,27.87,19.87,27.87"/>
		<path class="st2" d="M141.93,226.92v23.17c1.91-0.38,3.89-0.58,5.91-0.58c16.89,0,30.58,13.69,30.58,30.58
			c0,8.96-5.45,17.68-11.74,24.77h43.3c5.24,0,9.48-4.25,9.48-9.48v-68.46H141.93z"/>
		<path class="st3" d="M202.5,226.92v68.46c0,5.24,4.24,9.48,9.48,9.48h8.26c5.24,0,9.48-4.25,9.48-9.48v-68.46H202.5z"/>
		<path class="st0" d="M151.52,235.83c0,1.35-1.1,2.45-2.45,2.45c-1.35,0-2.45-1.1-2.45-2.45c0-1.36,1.1-2.45,2.45-2.45
			C150.42,233.37,151.52,234.47,151.52,235.83z"/>
		<path class="st0" d="M182.49,235.83c0,1.35-1.1,2.45-2.45,2.45c-1.35,0-2.45-1.1-2.45-2.45c0-1.36,1.1-2.45,2.45-2.45
			C181.4,233.37,182.49,234.47,182.49,235.83z"/>
		<path class="st0" d="M222.63,235.83c0,1.35-1.1,2.45-2.45,2.45c-1.35,0-2.45-1.1-2.45-2.45c0-1.36,1.1-2.45,2.45-2.45
			C221.53,233.37,222.63,234.47,222.63,235.83z"/>
		<path class="st1" d="M180.04,235.7c0,0,2.97-27.87,20-27.87c17.03,0,19.87,27.87,19.87,27.87"/>
		<path class="st1" d="M149.2,235.7c0,0,2.97-27.87,20-27.87"/>
		<path class="st4" d="M147.43,255.99c-12.95,0-23.45,10.5-23.45,23.45c0,16.55,23.45,31.56,23.45,31.56s23.45-15.28,23.45-31.56
			C170.88,266.49,160.38,255.99,147.43,255.99z M147.43,292.3c-8.44,0-15.28-6.84-15.28-15.28c0-8.44,6.84-15.28,15.28-15.28
			c8.44,0,15.28,6.84,15.28,15.28C162.71,285.46,155.87,292.3,147.43,292.3z"/>
		<path class="st4" d="M135.82,301.54c5.82,5.75,11.61,9.46,11.61,9.46s23.45-15.28,23.45-31.56c0-1.46-0.14-2.88-0.39-4.26
			C171.57,288.98,153.77,306.04,135.82,301.54z"/>
		<path class="st5" d="M190.59,304.87c-3.11-18.86-9.72-36.93-22.05-47.27c6.07,5.59,9.87,13.6,9.87,22.5
			c0,8.96-5.45,17.68-11.74,24.77H190.59z"/>
		<path class="st4" d="M147.43,288.17c-6.16,0-11.15-4.99-11.15-11.15c0-6.16,4.99-11.15,11.15-11.15c6.16,0,11.15,4.99,11.15,11.15
			C158.58,283.18,153.59,288.17,147.43,288.17z"/>
	</g>
</g>
<g id="TEXTS">
	<g>
		<g>
			<text transform="matrix(1 0 0 1 248.3621 260.4717)" class="st3 st6 st7">Shop</text>
			<g>
				<text transform="matrix(1 0 0 1 248.3612 303.3467)" class="st4 st6 st7">Local</text>
			</g>
		</g>
	</g>
</g>
</svg>
